<svg
  width="32"
  height="32"
  viewBox="0 0 32 32"
  fill="none"
  xmlns="http://www.w3.org/2000/svg"
>
  <rect
    x="0.5"
    y="0.5"
    width="31"
    height="31"
    rx="6"
    fill="white"
    stroke="#383838"
    strokeWidth="1"
  />
  <circle cx="16" cy="16" r="9" fill="#FFDE00" />
  <path
    d="M13 11C11.5 11 11.5 12.5 11.5 12.5V14.5C11.5 14.5 11.5 16 9.5 16C11.5 16 11.5 17.5 11.5 17.5V19.5C11.5 19.5 11.5 21 13 21"
    stroke="#383838"
    strokeWidth="1.5"
    strokeLinecap="round"
    strokeLinejoin="round"
  />
  <path
    d="M19 11C20.5 11 20.5 12.5 20.5 12.5V14.5C20.5 14.5 20.5 16 22.5 16C20.5 16 20.5 17.5 20.5 17.5V19.5C20.5 19.5 20.5 21 19 21"
    stroke="#383838"
    strokeWidth="1.5"
    strokeLinecap="round"
    strokeLinejoin="round"
  />
</svg>